<svg width="2028" height="726" viewBox="0 0 2028 726" fill="none" xmlns="http://www.w3.org/2000/svg">
<g clip-path="url(#clip0_1_202)">
<rect width="2028" height="726" fill="#CAD0D4"/>
<path d="M170 547.913C174.154 449.257 241.141 413.137 303.455 375.939C350.189 347.905 378.75 329.036 378.75 284.29C378.75 239.006 348.632 208.277 301.377 208.277C276.452 208.277 257.758 216.902 244.776 231.458C230.755 247.092 224.524 267.578 224.524 305.316H178.828C178.828 257.874 190.771 227.684 212.581 205.042C235.429 181.861 268.663 170.539 305.012 170.539C377.192 170.539 423.927 217.98 423.927 283.751C423.927 354.913 377.192 378.634 320.072 411.519C281.645 433.623 232.314 463.813 222.447 504.785H416.657V547.913H170Z" fill="black"/>
<path d="M448.159 547.913C452.313 449.257 519.3 413.137 581.614 375.939C628.348 347.905 656.909 329.036 656.909 284.29C656.909 239.006 626.791 208.277 579.536 208.277C554.611 208.277 535.917 216.902 522.935 231.458C508.914 247.092 502.683 267.578 502.683 305.316H456.986C456.986 257.874 468.93 227.684 490.74 205.042C513.588 181.861 546.821 170.539 583.171 170.539C655.351 170.539 702.086 217.98 702.086 283.751C702.086 354.913 655.351 378.634 598.231 411.519C559.803 433.623 510.473 463.813 500.606 504.785H694.816V547.913H448.159Z" fill="black"/>
<path d="M861.331 556C782.92 556 721.125 510.176 719.567 426.075H762.668C764.225 485.377 801.092 518.262 859.775 518.262C909.103 518.262 943.896 492.925 943.896 440.631C943.896 393.729 910.143 368.93 850.427 368.93H828.095V333.888H849.904C905.466 333.888 933.509 309.629 933.509 270.274C933.509 229.841 898.715 205.581 856.138 205.581C804.729 205.581 774.089 240.084 774.089 291.299H731.512C732.029 218.52 779.283 170 857.694 170C923.644 170 976.093 207.198 976.093 271.352C976.093 312.863 951.687 337.123 917.41 348.983V350.6C967.262 364.078 989.071 396.964 989.071 444.944C989.071 515.567 933.509 556 861.331 556Z" fill="black"/>
<path d="M1011.58 547.913C1015.73 449.257 1082.72 413.137 1145.03 375.939C1191.76 347.905 1220.32 329.036 1220.32 284.29C1220.32 239.006 1190.21 208.277 1142.95 208.277C1118.03 208.277 1099.33 216.902 1086.35 231.458C1072.33 247.092 1066.1 267.578 1066.1 305.316H1020.41C1020.41 257.874 1032.34 227.684 1054.16 205.042C1077 181.861 1110.24 170.539 1146.59 170.539C1218.77 170.539 1265.5 217.98 1265.5 283.751C1265.5 354.913 1218.77 378.634 1161.65 411.519C1123.22 433.623 1073.89 463.813 1064.02 504.785H1258.24V547.913H1011.58Z" fill="black"/>
<path d="M1424.74 556C1346.33 556 1284.54 510.176 1282.99 426.075H1326.08C1327.64 485.377 1364.51 518.262 1423.19 518.262C1472.52 518.262 1507.31 492.925 1507.31 440.631C1507.31 393.729 1473.56 368.93 1413.84 368.93H1391.51V333.888H1413.32C1468.89 333.888 1496.93 309.629 1496.93 270.274C1496.93 229.841 1462.14 205.581 1419.56 205.581C1368.15 205.581 1337.51 240.084 1337.51 291.299H1294.92C1295.45 218.52 1342.7 170 1421.11 170C1487.06 170 1539.51 207.198 1539.51 271.352C1539.51 312.863 1515.1 337.123 1480.83 348.983V350.6C1530.68 364.078 1552.49 396.964 1552.49 444.944C1552.49 515.567 1496.93 556 1424.74 556Z" fill="black"/>
<path d="M1719.87 556C1632.11 556 1581.75 480.525 1581.75 363C1581.75 243.319 1636.27 170 1720.39 170C1804.51 170 1858 242.24 1858 363C1858 480.525 1808.67 556 1719.87 556ZM1720.39 516.645C1783.74 516.645 1812.83 458.422 1812.83 363C1812.83 269.196 1782.19 208.816 1720.39 208.816C1657.56 208.816 1626.92 267.578 1626.92 363C1626.92 456.804 1657.56 516.645 1720.39 516.645Z" fill="black"/>
<path d="M1897.4 393.988C1897.31 404.828 1899.34 414.604 1902.14 424.186C1905.82 436.188 1909.79 448.092 1913.85 459.9C1915.2 463.772 1915.3 467.45 1914.04 471.225C1909.01 485.84 1911.14 500.551 1913.65 515.166C1918.2 540.815 1923.13 566.367 1927.87 591.919C1927.97 592.209 1927.97 592.597 1928.07 592.887C1929.03 599.856 1928.07 604.598 1925.75 604.018C1921.39 603.05 1921.88 598.598 1920.33 595.597C1917.81 590.661 1916.85 585.434 1916.07 579.917C1915.2 573.239 1912.98 566.754 1911.33 560.27C1906.21 539.654 1899.92 519.328 1897.02 498.228C1896.63 495.712 1896.05 493.195 1895.28 490.679C1890.34 476.064 1887.44 460.772 1880.77 446.737C1879.03 442.963 1876.9 439.188 1874.19 436.091C1868.19 429.025 1862.49 429.219 1856.59 436.284C1854.36 438.994 1852.81 442.285 1850.78 445.189C1841.21 458.933 1831.82 472.773 1822.05 486.42C1815.09 496.099 1807.84 505.584 1800.29 514.779C1785.88 532.491 1771.66 550.397 1755.12 566.27C1747 574.11 1738.68 581.66 1730.46 589.306C1725.72 593.661 1721.07 598.114 1716.33 602.372C1714.88 603.63 1713.53 605.373 1711.79 605.856C1710.24 606.34 1708.3 605.469 1706.56 605.179C1707.05 603.824 1707.14 602.082 1708.01 601.017C1711.88 596.662 1715.75 592.5 1719.91 588.435C1741.39 567.528 1761.89 545.654 1780.85 522.425C1787.14 514.682 1790.23 505.584 1794.49 497.067C1799.32 487.582 1804.93 478.677 1813.54 471.999C1815.28 470.644 1817.12 469.192 1818.38 467.353C1824.38 459.03 1830.08 450.415 1836.18 442.092C1843.14 432.51 1847.11 421.573 1850.59 410.636C1856.39 392.73 1857.65 374.243 1855.81 355.273C1854.75 344.529 1852.33 334.657 1848.75 324.591C1844.88 313.654 1839.95 303.104 1836.66 292.167C1831.63 275.713 1823.7 260.711 1816.83 245.128C1814.12 238.934 1810.45 233.223 1807.55 227.126C1800.58 212.608 1794 197.896 1786.94 183.475C1783.27 175.925 1779.21 168.666 1774.76 161.504C1772.92 158.6 1770.11 156.18 1767.21 154.245C1762.37 151.147 1758.22 152.212 1754.64 157.051C1753.28 158.89 1752.12 160.826 1751.35 162.956C1744.96 179.41 1738.1 195.767 1732.39 212.511C1721.56 244.257 1709.27 275.326 1695.34 305.814C1686.93 324.301 1679.19 343.078 1670.78 361.467C1664.78 374.63 1658.01 387.503 1651.62 400.473C1651.04 401.634 1650.37 402.699 1649.79 403.86C1635.76 435.026 1617.77 464.062 1601.33 493.873C1596.78 502.003 1591.85 510.037 1586.62 517.78C1583.82 522.038 1580.05 525.619 1576.47 529.297C1575.89 529.878 1573.86 529.975 1573.08 529.491C1572.11 528.91 1571.24 527.362 1571.34 526.297C1571.63 524.458 1572.5 522.716 1573.47 521.07C1579.95 509.94 1586.72 499.003 1593.1 487.775C1600.84 474.031 1608.39 460.191 1615.93 446.35C1621.83 435.607 1627.83 424.96 1633.34 414.12C1641.37 398.344 1649.2 382.47 1656.65 366.404C1667.87 342.11 1679 317.816 1689.64 293.329C1695.63 279.488 1700.57 265.164 1705.98 251.033C1707.05 248.322 1707.82 245.515 1709.18 242.902C1713.14 235.256 1714.5 227.126 1713.82 218.512C1713.72 217.544 1713.91 216.576 1713.82 215.608C1712.75 205.349 1715.37 195.96 1719.53 186.669C1725.52 173.118 1730.94 159.374 1736.26 145.534C1738.68 139.243 1740.42 132.661 1742.16 126.176C1744.19 118.433 1741.39 110.884 1740.51 103.334C1740.13 100.237 1738.87 97.1398 1737.61 94.1394C1735.78 89.4936 1733.45 85.3316 1727.26 85.8155C1725.43 85.9123 1723.49 84.9446 1721.75 84.2671C1718.85 83.1056 1717.98 80.8795 1718.94 77.9759C1719.72 75.5562 1720.98 73.2332 1721.56 70.7168C1722.04 68.5874 1722.33 66.2646 1721.75 64.232C1719.14 54.1661 1714.3 52.6174 1705.89 58.6183C1692.93 67.9099 1682.67 80.0083 1671.65 91.1389C1662.17 100.721 1652.49 110.206 1643.01 119.788C1631.89 131.016 1620.96 142.34 1609.84 153.47C1587.59 175.828 1566.7 199.541 1542.61 219.964C1525.69 234.288 1509.24 249.387 1490.77 261.776C1487.58 263.905 1484.48 266.422 1480.32 266.035C1479.45 265.938 1477.9 265.551 1477.81 265.067C1477.52 264.002 1477.61 262.26 1478.29 261.679C1483.32 256.743 1488.16 251.516 1493.77 247.161C1515.14 230.513 1535.74 212.995 1555.09 194.121C1570.95 178.635 1585.95 162.278 1601.52 146.405C1612.84 134.887 1624.25 123.66 1635.95 112.529C1640.69 107.98 1644.47 103.237 1645.63 96.3655C1646.98 88.1386 1651.82 81.7505 1657.72 75.9432C1669.9 63.9415 1681.8 51.7462 1693.51 39.3574C1701.73 30.6465 1702.69 22.8067 1697.08 12.0633C1695.15 8.38532 1692.73 4.901 1690.12 1.70701C1684.32 -5.64887 1677.55 -7.58467 1668.94 -3.4228C1661.1 0.35193 1653.56 4.80426 1646.5 9.74044C1639.82 14.2895 1632.96 17.0964 1624.83 16.3221C1619.41 15.7413 1614.58 17.3866 1610.13 20.0967C1600.75 25.7104 1591.27 31.1305 1582.08 37.2281C1563.31 49.7137 1544.74 62.4898 1526.17 75.2657C1509.73 86.5899 1493.28 97.9141 1477.03 109.432C1468.91 115.239 1461.27 121.53 1453.43 127.725C1451.4 129.37 1449.17 131.015 1448.01 133.242C1442.02 144.082 1430.89 147.276 1420.93 152.212C1408.26 158.406 1395.59 164.794 1383.01 171.086C1377.31 173.989 1371.6 176.99 1365.99 180.087C1351.38 188.12 1336.88 196.541 1322.08 204.284C1304.38 213.576 1286.38 222.093 1268.68 231.288C1257.85 236.901 1247.21 242.999 1236.47 248.903C1231.44 251.71 1226.22 254.323 1221.19 257.033C1204.46 266.035 1187.82 275.133 1170.99 283.94C1153 293.329 1134.91 302.427 1116.82 311.525C1101.83 318.978 1086.93 326.43 1071.65 333.302C1059.08 338.916 1046.12 343.852 1033.25 348.788C1025.71 351.692 1018.07 354.111 1010.42 356.434C1004.81 358.08 1001.82 357.402 1002.01 355.176C1002.2 351.595 1005.2 350.821 1007.91 349.659C1021.26 344.142 1034.7 338.819 1047.86 333.012C1065.75 325.075 1083.55 316.751 1101.35 308.524C1107.15 305.814 1112.95 303.007 1118.66 300.007C1130.27 293.813 1141.78 287.521 1153.48 281.327C1162.57 276.488 1171.86 272.035 1180.86 267.196C1196.24 259.066 1211.42 250.839 1226.8 242.612C1228.25 241.837 1229.61 240.966 1230.96 240.289C1243.24 233.901 1255.82 228.094 1267.62 221.028C1282.81 211.93 1298.38 203.703 1313.85 195.186C1323.62 189.766 1333.59 184.442 1343.36 179.022C1348.1 176.312 1352.64 173.312 1357.28 170.408C1371.99 161.31 1386.69 152.115 1401.49 143.017C1408.36 138.759 1415.22 134.693 1421.99 130.435C1441.92 118.046 1462.04 105.851 1481.77 93.1715C1490.67 87.461 1498.8 80.4923 1507.31 74.2979C1516.88 67.2324 1526.17 59.5862 1536.33 53.5854C1556.06 41.9708 1575.21 29.5819 1593.59 16.0317C1606.36 6.74002 1618.93 -2.74523 1631.41 -12.3272C1637.21 -16.8763 1642.92 -21.7157 1648.04 -26.9423C1657.72 -36.8146 1659.65 -51.623 1650.85 -64.0118C1644.56 -72.9163 1637.6 -81.3368 1630.54 -89.6606C1614.48 -108.534 1598.13 -127.118 1581.98 -145.991C1580.34 -147.927 1578.79 -150.153 1578.11 -152.573C1577.63 -154.121 1578.11 -156.832 1579.18 -157.606C1580.34 -158.477 1582.85 -158.187 1584.5 -157.606C1585.85 -157.122 1587.01 -155.67 1588.07 -154.508C1593.2 -148.798 1598.23 -142.991 1603.55 -137.377C1614.09 -126.053 1624.93 -115.116 1635.28 -103.598C1643.01 -94.9841 1650.37 -85.9828 1657.33 -76.6911C1661.49 -71.1742 1665.46 -66.0446 1671.74 -62.7538C1674.55 -61.302 1676.77 -58.7853 1679.48 -57.0432C1686.54 -52.3973 1692.25 -52.3974 1698.92 -57.624C1704.24 -61.7858 1709.18 -66.3347 1714.21 -70.787C1719.53 -75.4328 1724.85 -80.0787 1730.26 -84.6277C1731.23 -85.402 1732.58 -86.2732 1733.74 -86.1764C1735.19 -86.0796 1737.03 -85.5957 1737.9 -84.531C1738.77 -83.5632 1738.58 -81.6274 1738.68 -80.1756C1738.68 -79.5949 1738.19 -79.0139 1737.81 -78.53C1730.26 -70.2062 1722.81 -61.7858 1715.17 -53.462C1712.75 -50.8488 1709.85 -48.7194 1707.43 -46.1061C1699.02 -37.008 1696.89 -25.0064 1702.6 -13.9726C1707.05 -5.45524 1712.37 2.67479 1717.49 10.805C1719.62 14.1925 1722.52 14.8702 1725.72 12.4505C1729 9.93407 1732.2 7.12708 1734.71 3.83629C1739.55 -2.5517 1743.9 -9.32685 1748.35 -16.0052C1750.28 -18.9088 1752.03 -22.1029 1754.06 -25.0065C1755.51 -27.0391 1757.83 -28.2973 1759.76 -26.4583C1761.12 -25.1033 1762.08 -22.5868 1762.08 -20.6511C1762.08 -18.9089 1760.54 -17.1667 1759.67 -15.5213C1756.47 -9.90758 1753.28 -4.29374 1750.09 1.31995C1744.29 11.3859 1740.42 22.3228 1736.94 33.3566C1735 39.551 1735.87 44.1001 1740.42 49.133C1745.35 54.5532 1748.93 61.1348 1752.99 67.3292C1756.96 73.33 1760.34 73.5235 1764.7 67.7162C1766.24 65.6837 1767.6 63.4577 1768.66 61.038C1773.3 50.101 1778.04 39.1638 1780.95 27.5493C1782.88 19.8063 1785.69 12.1601 1787.62 4.41711C1790.14 -5.8424 1792.36 -16.2956 1794.58 -26.6519C1794.97 -28.2005 1794.97 -29.8458 1795.36 -31.3944C1796.42 -35.9434 1798.45 -37.9759 1801.36 -37.8791C1805.03 -37.6855 1808.71 -34.2981 1809.09 -30.5234C1809.29 -28.2973 1809.09 -25.9744 1808.8 -23.7482C1807.26 -11.2626 1804.35 0.932799 1800.68 12.9345C1798.36 20.3871 1796.71 27.9365 1797.39 35.7763C1797.58 38.2928 1797.58 41.0996 1798.55 43.3258C1801.94 51.0688 1800.29 58.4247 1797.97 65.8774C1797.2 68.2971 1796.62 70.9102 1795.46 73.2331C1786.56 91.7196 1787.91 110.884 1792.26 129.951C1794.49 139.63 1798.26 148.921 1803.39 157.632C1808.42 166.246 1812.96 175.151 1817.61 184.055C1820.22 189.088 1821.38 194.315 1819.25 199.929C1814.9 210.962 1817.61 221.609 1821.67 231.772C1827.67 246.677 1834.53 261.292 1841.01 276.004C1848.56 293.425 1856.2 310.847 1863.55 328.366C1866.45 335.335 1870.13 341.626 1875.74 346.659C1882.12 352.466 1886.86 352.466 1893.63 347.046C1901.37 340.852 1906.5 332.528 1910.85 324.01C1921.97 302.136 1935.13 281.521 1947.12 260.227C1948.57 257.711 1949.83 255.098 1951.38 252.678C1955.44 246 1956.99 239.031 1954.76 231.385C1953.7 227.707 1955.05 224.416 1956.12 221.028C1958.73 213.092 1960.76 205.058 1961.15 196.541C1962.31 174.377 1952.44 156.858 1938.9 140.598C1934.93 135.952 1931.26 131.112 1927.29 126.563C1921.39 119.788 1915.2 113.207 1909.3 106.335C1906.59 103.238 1903.89 99.9465 1901.56 96.4622C1900.31 94.6232 1899.53 91.8164 1901.95 90.4614C1903.11 89.7839 1905.72 90.2679 1907.17 91.2357C1915.88 96.7526 1923.62 103.141 1929.9 111.561C1936.68 120.562 1944.51 128.693 1952.35 136.726C1961.05 145.727 1972.17 149.696 1984.65 148.921C1993.45 148.341 2000.81 143.792 2006.03 137.016C2012.03 129.08 2017.54 120.756 2022.47 112.045C2030.69 97.4302 2037.85 82.3312 2043.17 66.458C2045.3 60.07 2048.59 54.0693 2050.91 47.7781C2058.16 27.8398 2065.13 7.80459 2072.38 -12.1337C2076.93 -24.5225 2082.15 -36.621 2086.51 -49.1066C2089.31 -56.9464 2091.05 -65.1733 2093.28 -73.2067C2095.98 -82.7887 2098.6 -92.4676 2101.59 -101.953C2103.82 -109.115 2104.79 -116.374 2104.11 -123.924C2103.53 -130.118 2100.82 -131.473 2095.02 -129.053C2087.67 -126.053 2081.96 -120.923 2076.35 -115.6C2060.58 -100.404 2044.62 -85.4021 2030.31 -68.7546C2024.5 -61.9794 2017.44 -56.1722 2010.67 -50.1714C1986.97 -28.878 1963.28 -7.58467 1939.38 13.5151C1926.81 24.5489 1914.14 35.4859 1901.08 45.939C1883.96 59.5861 1866.45 72.6525 1849.04 85.9124C1842.95 90.5582 1836.76 95.204 1830.37 99.6562C1828.34 101.011 1825.73 101.979 1823.31 102.076C1821.86 102.173 1819.73 100.624 1818.86 99.2692C1818.28 98.3981 1819.25 96.1718 1820.02 95.0104C1820.89 93.7521 1822.35 92.7844 1823.6 91.8166C1846.04 74.4915 1868.58 57.4568 1890.83 39.9382C1903.98 29.5819 1916.94 19.1289 1929.52 8.0951C1948.86 -8.84277 1967.82 -26.3615 1986.88 -43.5897C2002.45 -57.624 2016.57 -73.0131 2029.92 -89.1767C2038.92 -100.114 2049.17 -110.083 2058.16 -120.923C2066.19 -130.505 2073.74 -140.571 2080.89 -150.831C2092.02 -166.607 2101.88 -183.255 2113.88 -198.45C2123.94 -211.129 2130.23 -226.131 2136.61 -240.94C2145.8 -262.233 2152.38 -284.398 2158.57 -306.756C2164.27 -327.372 2166.3 -348.471 2169.59 -369.474C2170.66 -376.153 2170.75 -383.025 2172.2 -389.509C2173.27 -394.445 2175.69 -399.091 2177.81 -403.737C2178.88 -406.06 2182.46 -405.77 2183.04 -403.253C2183.81 -399.962 2184.3 -396.284 2183.81 -392.897C2181.49 -373.733 2179.07 -354.569 2176.27 -335.502C2174.53 -323.694 2172.11 -312.079 2170.17 -300.368C2167.85 -286.721 2165.05 -273.17 2163.6 -259.427C2163.02 -253.91 2165.05 -248.102 2166.59 -242.585C2167.56 -239.004 2170.46 -237.94 2173.46 -239.972C2179.07 -243.747 2184.88 -247.425 2189.52 -252.167C2205.38 -268.621 2220.76 -285.462 2236.14 -302.304C2240.49 -307.046 2244.07 -312.37 2248.04 -317.499C2265.45 -340.244 2283.05 -362.893 2300.37 -385.735C2305.98 -393.187 2311.1 -401.027 2315.94 -409.061C2326.68 -426.676 2337.22 -444.388 2347.47 -462.197C2354.05 -473.618 2359.76 -485.523 2366.04 -497.137C2367.88 -500.525 2369.91 -503.913 2372.33 -506.816C2373.2 -507.881 2376.1 -508.365 2377.36 -507.687C2378.72 -507.01 2379.78 -504.784 2379.97 -503.138C2380.17 -501.396 2379.3 -499.364 2378.43 -497.621C2368.46 -478.167 2359.27 -458.229 2347.38 -439.839C2335.19 -420.869 2322.52 -402.285 2310.62 -383.218C2298.34 -363.57 2284.5 -344.89 2270.77 -326.307C2262.93 -315.757 2254.23 -305.788 2245.91 -295.528C2240.59 -289.044 2235.27 -282.656 2229.85 -276.171C2213.31 -256.426 2197.55 -236.004 2182.84 -214.904C2172.59 -200.192 2162.73 -184.997 2155.66 -168.252C2147.93 -149.863 2140.58 -131.376 2135.26 -112.019C2133.8 -106.695 2130.32 -101.275 2126.26 -97.4036C2116.1 -87.8216 2110.01 -75.8199 2104.5 -63.5279C2098.4 -50.0744 2093.47 -36.0402 2088.34 -22.1995C2082.25 -5.93918 2076.54 10.4178 2070.64 26.775C2065.32 41.5835 2060 56.3922 2054.49 71.2007C2051.01 80.4923 2046.94 89.6872 2043.56 99.0756C2040.17 108.464 2040.08 118.143 2043.75 127.434C2046.27 133.919 2045.4 139.049 2040.85 144.276C2031.76 154.632 2026.73 167.214 2022.28 180.087C2018.8 190.153 2018.89 200.316 2022.76 210.285C2024.31 214.156 2026.05 217.931 2027.7 221.802C2030.69 228.868 2035.63 235.159 2035.72 243.289C2041.33 254.517 2045.88 266.422 2056.71 274.068C2063.39 278.714 2067.84 284.618 2068.71 292.941C2068.9 294.78 2069.87 296.716 2070.74 298.362C2082.44 319.074 2093.28 340.271 2105.75 360.499C2116.88 378.502 2125.68 398.053 2135.35 416.927C2139.12 424.379 2142.7 431.929 2146.19 439.478C2152.86 454.093 2159.92 468.611 2165.92 483.517C2176.36 509.456 2186.13 535.685 2196.1 561.818C2197.06 564.431 2197.74 567.432 2197.74 570.238C2197.74 571.69 2196.1 574.013 2194.74 574.4C2193.39 574.788 2190.68 573.82 2189.91 572.562C2187.68 568.69 2186.04 564.431 2184.39 560.27C2177.62 543.235 2171.14 526.103 2164.27 509.069C2158.08 493.873 2151.8 478.677 2145.12 463.675C2134.77 440.446 2124.71 417.12 2112.04 395.053C2106.43 385.277 2101.59 375.114 2095.98 365.339C2088.83 352.756 2081.67 340.174 2074.03 327.882C2066.19 315.3 2058.07 302.911 2049.65 290.812C2040.66 277.843 2031.08 265.26 2021.6 252.678C2016.86 246.387 2010.57 241.934 2003.13 239.224C1995.78 236.514 1989.1 236.418 1982.33 241.547C1970.05 250.742 1959.7 261.389 1952.54 275.229C1946.54 286.941 1939.58 298.265 1933.29 309.783C1927.58 320.236 1922.26 330.882 1916.75 341.432C1912.78 349.175 1908.72 356.918 1904.76 364.564C1899.53 373.662 1897.21 383.922 1897.4 393.988Z" fill="black"/>
<path d="M-193.295 796.112C-184.96 778.89 -177.002 761.45 -168.14 744.533C-162.537 733.783 -157.385 722.772 -150.608 712.599C-139.88 696.457 -129.443 679.945 -120.331 662.77C-113.116 649.228 -105.674 635.816 -97.8874 622.504C-94.7071 616.995 -91.8718 611.388 -88.5407 605.967C-79.2644 590.596 -88.4517 567.685 -101.375 560.123C-104.918 558.077 -108.386 556.075 -111.973 554.105C-113.254 553.365 -114.666 552.851 -115.579 551.821C-116.278 551.116 -116.553 549.851 -116.45 548.803C-116.415 548.22 -115.158 547.436 -114.532 547.395C-111.962 547.471 -109.142 547.288 -106.857 548.204C-99.4423 551.379 -91.6133 551.572 -83.8397 552.036C-74.4359 552.636 -66.3001 549.687 -59.3768 542.918C-52.9094 536.591 -47.1958 529.828 -41.6212 522.784C-31.1892 509.59 -20.2412 496.896 -9.73375 483.745C-2.26916 474.472 4.81854 464.981 11.9062 455.491C20.7331 443.684 29.4092 431.791 38.1289 419.821C39.6621 417.688 40.9691 415.424 42.3514 413.204C51.2121 398.902 61.1164 385.403 71.7746 372.34C78.4232 364.306 84.3296 355.642 90.6012 347.391C99.3728 335.854 108.22 324.361 116.991 312.824C127.197 299.5 137.403 286.175 147.534 272.807C155.338 262.423 163.111 251.919 170.884 241.416C181.157 227.627 189.986 213.205 194.399 196.335C196.621 187.959 200.268 179.902 202.296 171.515C204.984 160.591 206.906 149.426 208.71 138.294C210.123 129.753 211.041 121.026 212.184 112.43C212.33 111.307 212.218 109.934 212.74 109.028C213.525 107.67 214.837 106.617 215.998 105.476C216.974 106.744 218.578 107.971 218.69 109.344C219.034 113.97 219.066 118.616 218.903 123.251C218.725 128.783 218.083 134.247 218.023 139.747C217.931 143.215 218.108 146.738 218.88 150.102C221.077 160.224 229.437 164.547 238.575 159.863C242.603 157.761 246.3 154.664 249.534 151.501C258.237 143.043 266.574 134.173 275.17 125.553C293.49 107.053 311.853 88.4781 330.174 69.9782C333.831 66.2545 337.414 62.4872 340.996 58.7199C353.958 44.9743 368.198 32.6709 382.545 20.53C387.642 16.2286 392.481 11.6776 397.76 7.58222C399.397 6.31384 402.028 2.80201 404.259 5.90127C405.74 7.86297 402.739 9.7525 401.047 11.2908C388.809 22.7379 376.269 34.0109 364.321 45.8266C356.106 53.962 348.772 63.0086 340.891 71.4371C330.631 82.4167 319.888 93.0163 309.887 104.246C301.471 113.774 293.828 124.051 285.896 133.96C285.048 135.08 284.264 136.438 283.266 137.471C272.316 148.254 262.958 160.458 253.675 172.706C244.056 185.363 234.953 198.519 228.067 213.057C220.996 228.09 217.344 243.991 214.1 260.229C209.861 281.325 209.497 302.847 205.647 323.966C203.649 335.087 202.579 346.342 201.121 357.573C197.932 382.596 195.984 407.731 195.397 432.948C194.995 451.228 193.74 469.419 192.561 487.653C191.397 504.99 189.919 522.348 188.56 539.674C188.113 545.15 187.47 550.615 187.217 556.103C186.275 574.273 191.072 591.732 194.14 609.4C195.546 617.758 198.467 625.582 201.864 633.278C203.477 636.925 205.685 640.414 207.817 643.858C211.9 650.541 218.43 653.507 225.756 654.919C230.266 655.813 234.418 654.89 238.06 652.063C243.839 647.451 248.951 642.252 251.254 635.13C254.312 625.829 257.263 616.365 259.631 606.866C263.83 589.67 266.949 572.254 267.554 554.493C267.667 551.339 268.092 548.164 268.594 545.032C269.174 541.242 270.087 537.745 273.436 535.252C276.255 533.156 277.815 529.932 278.534 526.423C282.573 508.633 287.076 490.909 290.77 473.02C294.555 454.278 297.919 435.393 300.895 416.486C306.936 377.817 312.514 339.082 318.286 300.359C319.122 294.905 319.614 289.354 320.871 284.043C322.503 277.037 324.675 270.141 326.922 263.289C327.35 262.026 329.431 260.511 330.64 260.505C331.85 260.5 333.612 262.322 333.962 263.631C334.515 265.459 334.267 267.63 333.911 269.638C331.503 283.037 329.018 296.393 326.415 309.781C321.719 333.933 317.022 358.085 313.361 382.533C309.478 408.06 304.862 433.466 300.635 458.894C299.277 467.166 298.339 475.579 296.787 483.839C292.035 508.26 286.895 532.659 282.175 557.2C278.34 577.422 273.037 597.401 271.792 618.012C271.307 626.686 271.016 635.372 270.92 644.07C270.857 650.272 272.611 656.114 275.316 661.7C278.995 669.257 285.542 673.238 293.317 675.614C313.191 681.756 330.414 675.602 346.046 663.499C351.282 659.479 355.875 654.484 360.456 649.683C384.803 624.401 407.3 597.446 429.604 570.481C445.639 551.064 461.491 531.441 477.117 511.688C485.941 500.584 493.721 488.676 502.62 477.615C512.822 464.993 523.616 452.913 534.227 440.627C557.415 413.87 582.333 388.817 606.735 363.264C616.147 353.405 625.999 344.001 635.776 334.554C637.392 332.972 639.418 331.727 641.571 330.958C643.886 330.081 646.248 332.954 645.255 335.197C644.578 336.718 643.512 338.216 642.307 339.432C633.894 348.258 625.375 356.922 617.005 365.672C615.594 367.071 614.398 368.795 613.17 370.4C610.769 373.34 608.626 376.53 605.86 379.058C585.16 398.196 567.342 420.005 549.719 441.824C542.635 450.613 535.733 459.607 528.8 468.482C528.289 469.193 527.853 469.948 527.191 470.572C516.726 481.734 506.141 492.929 495.827 504.179C490.149 510.358 484.879 516.873 479.458 523.302C464.913 540.661 450.487 557.988 436.017 575.391C426.555 586.73 416.76 597.776 407.631 609.409C397.861 621.979 388.273 634.755 379.515 648.01C373.161 657.622 368.045 668.05 366.357 679.853C365.071 688.87 368.713 695.098 375.395 700.063C381.292 704.473 387.866 707.363 395.414 707.696C405.293 708.168 415.117 708.91 424.878 709.415C433.667 709.861 442.24 708.069 450.547 705.52C463.655 701.619 476.39 696.797 488.751 691.056C515.357 678.748 542.198 667.079 568.879 654.815C580.753 649.396 592.348 643.413 604.051 637.594C610.168 634.485 616.334 632.511 623.295 633.512C627.472 634.112 631.29 632.895 635.088 631.366C654.999 623.342 675.08 615.72 694.959 607.577C718.561 597.862 742.238 588.19 765.391 577.511C781.162 570.216 797.135 563.441 813.077 556.547C826.973 550.585 840.75 544.655 854.507 538.411C873.557 529.79 892.595 521.363 911.442 512.223C923.339 506.414 934.724 499.405 946.462 493.001C966.343 482.244 985.592 470.318 1006.88 462.181C1008.51 461.615 1010.15 460.855 1011.54 459.845C1028.15 449.009 1046.81 442.278 1064.39 433.413C1077.31 426.885 1090.24 420.162 1103.08 413.591C1105.37 412.401 1107.74 411.254 1110.25 410.389C1111.13 410.09 1112.93 410.627 1113.29 411.233C1113.84 412.359 1114.13 414.64 1113.51 415.189C1110.51 417.781 1107.34 420.48 1103.8 422.259C1087.75 430.395 1071.49 438.012 1055.43 446.148C1038.13 454.874 1021.24 464.638 1003.63 472.681C985.898 480.757 968.597 489.482 951.638 499.008C929.145 511.678 905.326 521.771 882.523 533.759C871.728 539.399 860.592 544.238 849.38 549.033C831.003 556.836 812.989 565.753 794.752 573.837C772.261 583.892 749.921 594.034 726.969 603.32C701.702 613.482 677.15 625.366 652.352 636.806C629.199 647.485 606.42 659.084 583.128 669.481C566.937 676.634 550.745 683.786 535.249 692.346C519.959 700.723 504.681 708.905 489.498 717.445C486.227 719.279 483.052 721.47 480.544 724.248C473.324 732.052 474.888 743.62 484.216 748.704C490.56 752.165 497.482 754.452 504.187 757.115C512.8 760.478 521.5 763.69 530.112 767.053C531.18 767.468 532.322 767.926 533.171 768.718C543.204 777.63 556.259 780.438 567.82 786.006C579.004 791.356 590.667 795.877 602.168 800.505C610.242 803.757 618.457 806.589 626.455 809.798C629.613 811.118 632.672 812.783 635.351 814.934C637.212 816.411 637.924 818.834 636.53 821.249C635.191 823.393 633.14 823.115 631.07 822.523C629.419 822.073 627.694 821.58 626.131 820.98C612.368 815.046 598.617 808.918 584.724 803.211C573.191 798.464 561.199 794.861 549.916 789.856C531.639 781.818 512.356 776.219 493.936 768.603C484.613 764.729 475.377 760.705 465.432 758.082C446.816 753.069 428.835 753.051 411.475 762.748C409.743 763.66 407.642 764.861 405.861 764.638C399.158 763.887 393.334 766.662 387.566 769.167C378.518 772.999 369.674 777.35 360.722 781.538C350.45 786.273 340.178 791.007 329.981 795.785C323.118 798.966 316.407 802.234 309.512 805.297C305.302 807.192 300.952 808.806 296.667 810.658C280.899 817.25 265.72 825.088 249.503 830.716C236.154 835.384 223.336 841.567 210.21 847.068C197.364 852.429 184.22 856.914 171.685 862.957C160.513 868.38 149.5 874.397 141.556 884.5C140.839 885.394 138.924 886.099 137.889 885.803C136.778 885.464 135.663 883.914 135.344 882.724C134.016 878.235 135.417 874.415 139.73 871.472C143.349 869.034 147.107 866.877 151.004 865.002C160.725 860.352 170.466 856.016 180.218 851.485C194.951 844.596 209.683 837.708 224.339 830.777C226.71 829.63 229.081 828.484 231.13 826.85C238.34 821.152 246.757 818.063 255.174 814.975C273.686 808.156 292.059 801.056 309.513 791.715C320.276 785.956 331.596 781.323 342.315 775.64C355.092 768.83 367.591 761.458 380.122 754.204C389.295 748.936 391.666 738.735 387.762 731.047C386.125 727.789 383.716 725.693 380.039 724.576C364.802 719.804 350.184 720.923 334.891 725.475C309.194 733.075 288.817 748.173 270.378 766.705C258.124 779.049 246.28 791.73 234.134 804.236C232.137 806.302 229.838 808.195 227.412 809.611C224.336 811.457 221.225 809.359 222.063 805.819C222.747 802.893 224.339 799.788 226.38 797.646C234.642 788.733 243.344 780.275 251.682 771.405C256.393 766.379 260.966 761.07 265.161 755.544C267.455 752.441 270.285 750.151 273.385 747.917C285.339 739.224 296.607 729.631 306.521 718.553C309.366 715.366 310.982 711.872 311.585 707.692C312.247 702.541 310.762 699.369 306.227 696.952C304.675 696.157 303.08 695.438 301.343 695.139C292.506 693.558 283.668 691.977 274.764 690.861C268.223 690.002 262.125 691.512 256.941 695.964C253.362 699.029 250.386 702.442 249.811 707.443C249.023 714.031 248.116 720.651 247.058 727.183C246.391 731.124 245.681 735.141 244.323 738.885C243.108 742.208 240.781 743.279 238.29 742.545C235.454 741.712 235.13 739.312 235.39 736.947C236.048 730.586 237.05 724.323 237.783 718.005C238.586 710.52 239.27 703.067 239.804 695.528C239.965 693.508 239.618 691.497 239.509 689.422C238.983 680.062 235.126 673.51 225.234 671.319C220.767 670.351 216.522 668.302 212.091 666.75C210.484 666.225 208.79 665.85 207.021 665.433C192.912 662.015 185.235 668.348 182.464 680.633C180.346 689.874 179.639 699.628 179.885 709.127C180.25 725.033 181.901 740.977 183.043 756.93C183.196 758.93 183.499 761.016 183.381 762.961C183.138 766.342 181.077 768.17 177.75 768.362C175.049 768.513 173.101 767.187 172.79 764.593C172.518 762.625 172.798 760.573 172.765 758.542C172.64 746.396 172.948 734.199 172.36 721.987C171.5 703.28 166.414 685.452 159.9 668.008C156.275 658.269 149.202 651.369 140.783 646.105C132.029 640.548 122.69 635.659 113.315 631.353C87.9156 619.808 61.2345 612.05 34.4981 604.562C15.8937 599.355 -2.90703 596.75 -22.1908 600.205C-38.6749 603.164 -53.1573 609.794 -63.839 623.246C-65.6537 625.519 -67.4683 627.791 -68.9814 630.238C-74.4155 639.476 -79.8495 648.714 -85.0574 658.083C-87.6831 662.805 -91.2972 666.453 -95.8678 669.146C-108.854 676.841 -118.443 687.705 -127.552 699.651C-142.476 719.407 -154.988 740.556 -167.242 761.954C-175.313 776.109 -183.266 790.231 -191.036 804.56C-200.113 821.152 -204.703 839.026 -204.827 857.87C-204.862 864.893 -206.673 870.991 -211.17 876.343C-214.57 880.316 -219.171 880.276 -222.065 875.888C-223.459 873.775 -224.159 871.158 -224.589 868.595C-226.286 859.869 -223.159 852.015 -219.536 844.347C-216.012 837.025 -212.639 829.616 -208.857 822.543C-204.029 813.659 -198.781 804.917 -193.684 796.089C-193.791 795.926 -193.565 796.057 -193.295 796.112ZM87.3471 607.909C101.979 614.948 117.082 620.65 133.06 624.139C136.102 624.789 139.374 624.867 142.539 624.783C147.69 624.739 151.837 622.605 155.538 618.806C160.825 613.306 163.179 606.617 165.05 599.547C166.315 594.744 167.041 589.83 168.877 585.256C171.949 577.673 173.866 569.825 174.899 561.769C178.08 536.239 181.692 510.656 182.239 484.813C182.463 472.064 183.778 459.341 184.585 446.626C185.583 430.099 186.538 413.646 187.537 397.119C187.959 390.119 187.05 383.859 181.296 379.027C178.177 376.422 177.265 372.777 177.425 368.844C178.095 353.234 178.614 337.536 179.284 321.925C179.665 312.386 180.629 302.882 180.741 293.287C180.805 288.998 180.06 284.543 178.546 280.55C175.1 271.719 165.1 269.366 157.792 275.409C155.536 277.226 153.571 279.412 151.756 281.684C140.892 294.931 130.329 308.351 119.358 321.435C109.179 333.668 99.1072 346.064 90.6068 359.568C86.1983 366.682 81.1113 373.404 76.2504 380.256C74.5866 382.616 72.8473 384.932 71.1835 387.291C58.6485 404.302 48.9229 423.236 36.2372 440.16C27.4103 451.966 20.9841 465.36 15.2045 479.027C10.6599 489.684 6.26611 500.428 1.19383 510.78C-3.43104 520.184 -5.54121 529.932 -5.02949 540.188C-4.05946 558.355 3.6576 572.671 20.4122 580.734C30.3031 585.539 40.5777 589.157 51.5612 591.373C62.8898 593.688 73.9535 597.158 82.9864 605.19C84.1573 606.47 85.8394 607.039 87.3471 607.909Z" fill="black"/>
</g>
<defs>
<clipPath id="clip0_1_202">
<rect width="2028" height="726" fill="white"/>
</clipPath>
</defs>
</svg>
